<?xml version="1.0" encoding="utf-8"?>
<!-- Generator: Adobe Illustrator 16.0.4, SVG Export Plug-In . SVG Version: 6.00 Build 0)  -->
<!DOCTYPE svg PUBLIC "-//W3C//DTD SVG 1.1//EN" "http://www.w3.org/Graphics/SVG/1.1/DTD/svg11.dtd">
<svg version="1.1" id="Layer_1" xmlns="http://www.w3.org/2000/svg" xmlns:xlink="http://www.w3.org/1999/xlink" x="0px" y="0px"
	 width="25px" height="25px" viewBox="0.085 0.079 25 25" enable-background="new 0.085 0.079 25 25" xml:space="preserve">
<g>
	<path fill="#333333" d="M12.586,1.052c6.359,0,11.533,5.171,11.533,11.527s-5.174,11.528-11.533,11.528
		c-6.36,0-11.534-5.172-11.534-11.528S6.227,1.052,12.586,1.052 M12.586,0C5.636,0,0,5.631,0,12.579
		c0,6.947,5.635,12.58,12.586,12.58c6.95,0,12.584-5.633,12.584-12.58C25.171,5.631,19.537,0,12.586,0L12.586,0z"/>
	<g>
		<path fill="#333333" d="M7.252,17.296h2.549c0,0,2.782,0.094,2.782-2.784c0,0,0.122-2.344-1.64-2.344c0,0,1.335-0.107,1.335-1.794
			c0-1.688-1.092-2.512-2.478-2.512H7.252H7.177H5.244v9.435h1.933H7.252z M7.252,9.54h2.222h0.327c0,0,0.619,0,0.619,0.98
			c0,0.981-0.364,1.124-0.776,1.124H7.252V9.54z M7.252,13.099h2.549c0,0,0.923-0.014,0.923,1.295c0,1.104-0.689,1.217-1.051,1.227
			c-0.067,0-0.125,0-0.164,0H7.252V13.099z"/>
		<path fill="#333333" d="M16.675,9.958c-3.565,0-3.562,3.676-3.562,3.676s-0.246,3.659,3.562,3.659c0,0,3.173,0.188,3.173-2.545
			h-1.632c0,0,0.055,1.03-1.486,1.03c0,0-1.632,0.113-1.632-1.666h4.804C19.901,14.112,20.428,9.958,16.675,9.958z M15.079,12.835
			c0,0,0.2-1.476,1.632-1.476c1.433,0,1.413,1.476,1.413,1.476H15.079z"/>
		<rect x="15.208" y="8.386" fill="#333333" width="3.146" height="1.049"/>
	</g>
</g>
</svg>
