<?xml version="1.0" encoding="utf-8"?>
<!-- Generator: Adobe Illustrator 16.0.4, SVG Export Plug-In . SVG Version: 6.00 Build 0)  -->
<!DOCTYPE svg PUBLIC "-//W3C//DTD SVG 1.1//EN" "http://www.w3.org/Graphics/SVG/1.1/DTD/svg11.dtd">
<svg version="1.1" id="Layer_1" xmlns="http://www.w3.org/2000/svg" xmlns:xlink="http://www.w3.org/1999/xlink" x="0px" y="0px"
	 width="25px" height="25px" viewBox="0 0 25 25" enable-background="new 0 0 25 25" xml:space="preserve">
<g>
	<path fill="#333333" d="M12.59,0C5.64,0,0,5.63,0,12.58s5.63,12.58,12.59,12.58c6.95,0,12.58-5.63,12.58-12.58S19.54,0,12.59,0z
		 M12.58,14.51c0,2.88-2.78,2.79-2.78,2.79H5.24V7.86H9.8c1.39,0,2.48,0.83,2.48,2.51c0,1.69-1.34,1.8-1.34,1.8
		C12.71,12.17,12.58,14.51,12.58,14.51z M15.21,8.39h3.14v1.05h-3.14V8.39z M19.9,14.11H15.1c0,1.779,1.631,1.67,1.631,1.67
		c1.539,0,1.489-1.03,1.489-1.03h1.63c0,2.73-3.18,2.54-3.18,2.54c-3.8,0-3.56-3.66-3.56-3.66s0-3.67,3.56-3.67
		C20.43,9.96,19.9,14.11,19.9,14.11z"/>
	<g>
		<path fill="#333333" d="M10.72,14.39c0,1.11-0.68,1.221-1.05,1.23H7.25V13.1H9.8C9.85,13.1,10.72,13.12,10.72,14.39z"/>
		<path fill="#333333" d="M10.42,10.52c0,0.98-0.36,1.12-0.78,1.12H7.25v-2.1H9.8C9.8,9.54,10.42,9.54,10.42,10.52z"/>
		<path fill="#333333" d="M18.12,12.83h-3.04c0,0,0.2-1.47,1.63-1.47C18.1,11.36,18.12,12.75,18.12,12.83z"/>
	</g>
</g>
</svg>
