<?xml version="1.0" encoding="utf-8"?>
<!-- Generator: Adobe Illustrator 16.0.4, SVG Export Plug-In . SVG Version: 6.00 Build 0)  -->
<!DOCTYPE svg PUBLIC "-//W3C//DTD SVG 1.1//EN" "http://www.w3.org/Graphics/SVG/1.1/DTD/svg11.dtd">
<svg version="1.1" id="Layer_1" xmlns="http://www.w3.org/2000/svg" xmlns:xlink="http://www.w3.org/1999/xlink" x="0px" y="0px"
	 width="100px" height="100px" viewBox="0 0 100 100" enable-background="new 0 0 100 100" xml:space="preserve">
<g>
	<path d="M59.239,74.539c0.531,0,1.026,0.259,1.301,0.685l2.134,3.246c0.179,0.271,0.495,0.44,0.831,0.44h14.669
		c0.368,0,0.604-0.188,0.716-0.294c0.099-0.105,0.262-0.319,0.259-0.632l-4.396-22.07c-0.186-0.927-1.045-1.601-2.045-1.601H27.472
		c-1.102,0-2.048,0.741-2.254,1.761l-4.365,21.91c-0.003,0.312,0.16,0.526,0.262,0.632c0.107,0.105,0.344,0.294,0.713,0.294h14.667
		c0.34,0,0.652-0.169,0.833-0.44l2.136-3.246c0.278-0.426,0.771-0.685,1.302-0.685s1.024,0.259,1.302,0.685l2.134,3.246
		c0.176,0.271,0.487,0.44,0.831,0.44h9.94c0.339,0,0.652-0.169,0.831-0.44l2.128-3.246C58.213,74.798,58.706,74.539,59.239,74.539
		 M78.174,81.802H63.504c-1.406,0-2.69-0.674-3.435-1.805l-0.831-1.266l-0.827,1.266c-0.742,1.131-2.029,1.805-3.438,1.805h-9.94
		c-1.411,0-2.697-0.674-3.439-1.805l-0.828-1.266l-0.834,1.266c-0.743,1.131-2.026,1.805-3.437,1.805H21.828
		c-1.115,0-2.195-0.443-2.958-1.217c-0.762-0.773-1.155-1.818-1.073-2.873c0.003-0.057,0.009-0.108,0.022-0.162l4.389-22.009
		c0.475-2.388,2.686-4.122,5.264-4.122h45.235c2.473,0,4.601,1.664,5.058,3.962l4.419,22.169c0.013,0.054,0.019,0.105,0.019,0.162
		c0.083,1.055-0.31,2.1-1.067,2.873C80.372,81.358,79.292,81.802,78.174,81.802"/>
	<path d="M40.592,76.878c-0.051,0-0.104-0.003-0.157-0.006c-0.84-0.083-1.456-0.793-1.371-1.588l2.909-26.92
		c0.343-3.157-0.609-6.343-2.678-8.96c-2.454-3.108-4.103-7.646-4.103-11.288c0-4.524,2.572-9.918,14.808-9.918
		c12.236,0,14.805,5.394,14.805,9.918c0,3.604-1.578,8.097-3.923,11.177c-1.87,2.45-2.735,5.474-2.435,8.515l2.716,27.489
		c0.077,0.796-0.543,1.498-1.387,1.575c-0.837,0.067-1.588-0.512-1.671-1.307L55.4,48.076c-0.371-3.735,0.69-7.451,2.991-10.471
		c1.968-2.588,3.349-6.489,3.349-9.489c0-1.735,0-7.026-11.738-7.026c-11.739,0-11.739,5.291-11.739,7.026
		c0,3.02,1.437,6.952,3.494,9.557c2.527,3.205,3.689,7.106,3.269,10.982l-2.908,26.923C42.036,76.322,41.368,76.878,40.592,76.878"
		/>
</g>
</svg>
