<?xml version="1.0" encoding="utf-8"?>
<!-- Generator: Adobe Illustrator 16.0.4, SVG Export Plug-In . SVG Version: 6.00 Build 0)  -->
<!DOCTYPE svg PUBLIC "-//W3C//DTD SVG 1.1//EN" "http://www.w3.org/Graphics/SVG/1.1/DTD/svg11.dtd">
<svg version="1.1" id="Layer_1" xmlns="http://www.w3.org/2000/svg" xmlns:xlink="http://www.w3.org/1999/xlink" x="0px" y="0px"
	 width="25px" height="25px" viewBox="37.5 37.5 25 25" enable-background="new 37.5 37.5 25 25" xml:space="preserve">
<g>
	<path fill="#333333" d="M49.783,38.526c6.207,0,11.256,5.046,11.256,11.25s-5.049,11.25-11.256,11.25
		c-6.206,0-11.256-5.047-11.256-11.25S43.576,38.526,49.783,38.526 M49.783,37.5C43,37.5,37.5,42.995,37.5,49.775
		c0,6.779,5.5,12.277,12.283,12.277s12.281-5.498,12.281-12.277C62.064,42.995,56.566,37.5,49.783,37.5L49.783,37.5z"/>
	<path fill="#333333" d="M54.179,42.614h-8.792c-1.527,0-2.769,1.241-2.769,2.768v2.924v5.864c0,1.526,1.242,2.767,2.769,2.767
		h8.792c1.526,0,2.77-1.24,2.77-2.767v-5.864v-2.924C56.948,43.855,55.705,42.614,54.179,42.614z M54.973,44.265l0.316-0.001v0.316
		v2.111l-2.42,0.009l-0.009-2.427L54.973,44.265z M47.738,48.306c0.459-0.635,1.204-1.051,2.045-1.051
		c0.841,0,1.586,0.416,2.045,1.051c0.298,0.414,0.478,0.921,0.478,1.469c0,1.39-1.133,2.521-2.522,2.521
		c-1.392,0-2.523-1.132-2.523-2.521C47.26,49.228,47.439,48.72,47.738,48.306z M55.552,54.17c0,0.757-0.616,1.371-1.373,1.371
		h-8.792c-0.757,0-1.374-0.614-1.374-1.371v-5.864h2.14c-0.185,0.454-0.289,0.95-0.289,1.469c0,2.16,1.757,3.916,3.918,3.916
		c2.16,0,3.918-1.756,3.918-3.916c0-0.52-0.104-1.015-0.289-1.469h2.14V54.17z"/>
</g>
</svg>
