<?xml version="1.0" encoding="utf-8"?>
<!-- Generator: Adobe Illustrator 16.0.4, SVG Export Plug-In . SVG Version: 6.00 Build 0)  -->
<!DOCTYPE svg PUBLIC "-//W3C//DTD SVG 1.1//EN" "http://www.w3.org/Graphics/SVG/1.1/DTD/svg11.dtd">
<svg version="1.1" id="Layer_1" xmlns="http://www.w3.org/2000/svg" xmlns:xlink="http://www.w3.org/1999/xlink" x="0px" y="0px"
	 width="25px" height="25px" viewBox="0 0 25 25" enable-background="new 0 0 25 25" xml:space="preserve">
<g>
	<path fill="#333333" d="M12.5,0.22c-6.78,0-12.28,5.5-12.28,12.28c0,6.78,5.5,12.28,12.28,12.28c6.78,0,12.28-5.5,12.28-12.28
		C24.78,5.72,19.28,0.22,12.5,0.22z M19.67,16.89c0,1.53-1.25,2.771-2.77,2.771H8.1c-1.52,0-2.76-1.24-2.76-2.771V8.11
		c0-1.53,1.24-2.77,2.76-2.77h8.8c1.52,0,2.77,1.24,2.77,2.77V16.89z"/>
	<polygon fill="#333333" points="18.01,6.99 18.01,9.42 15.59,9.42 15.58,7 17.69,6.99 	"/>
	<path fill="#333333" d="M15.02,12.5c0,1.39-1.13,2.52-2.52,2.52c-1.39,0-2.52-1.13-2.52-2.52c0-0.55,0.18-1.06,0.48-1.47
		c0.46-0.63,1.2-1.05,2.04-1.05s1.59,0.42,2.05,1.05C14.84,11.44,15.02,11.95,15.02,12.5z"/>
	<path fill="#333333" d="M18.27,11.03v5.86c0,0.761-0.619,1.38-1.369,1.38H8.1c-0.75,0-1.37-0.619-1.37-1.38v-5.86h2.14
		c-0.18,0.45-0.29,0.95-0.29,1.47c0,2.16,1.76,3.92,3.92,3.92s3.92-1.76,3.92-3.92c0-0.52-0.11-1.02-0.29-1.47H18.27z"/>
</g>
</svg>
