<?xml version="1.0" encoding="utf-8"?>
<!-- Generator: Adobe Illustrator 16.0.4, SVG Export Plug-In . SVG Version: 6.00 Build 0)  -->
<!DOCTYPE svg PUBLIC "-//W3C//DTD SVG 1.1//EN" "http://www.w3.org/Graphics/SVG/1.1/DTD/svg11.dtd">
<svg version="1.1" id="Layer_1" xmlns="http://www.w3.org/2000/svg" xmlns:xlink="http://www.w3.org/1999/xlink" x="0px" y="0px"
	 width="25px" height="25px" viewBox="0 0 25 25" enable-background="new 0 0 25 25" xml:space="preserve">
<g>
	<path fill="#333333" d="M12.5,0.26C5.74,0.26,0.26,5.74,0.26,12.5S5.74,24.74,12.5,24.74s12.24-5.48,12.24-12.24
		S19.26,0.26,12.5,0.26z M19.64,19.64H16.7v-4.6c0-1.1-0.021-2.51-1.53-2.51c-1.53,0-1.77,1.201-1.77,2.43v4.68h-2.94V10.18h2.82
		v1.3h0.04c0.399-0.75,1.359-1.53,2.79-1.53c2.979,0,3.529,1.96,3.529,4.5V19.64z M8.42,7.4c0,0.85-0.69,1.53-1.53,1.53
		c-0.85,0-1.53-0.68-1.53-1.53c0-0.84,0.68-1.53,1.53-1.53C7.73,5.87,8.42,6.56,8.42,7.4z M5.36,9.95h3.06v9.689H5.36V9.95z"/>
</g>
</svg>
