<?xml version="1.0" encoding="utf-8"?>
<!-- Generator: Adobe Illustrator 16.0.4, SVG Export Plug-In . SVG Version: 6.00 Build 0)  -->
<!DOCTYPE svg PUBLIC "-//W3C//DTD SVG 1.1//EN" "http://www.w3.org/Graphics/SVG/1.1/DTD/svg11.dtd">
<svg version="1.1" id="Layer_1" xmlns="http://www.w3.org/2000/svg" xmlns:xlink="http://www.w3.org/1999/xlink" x="0px" y="0px"
	 width="25px" height="25px" viewBox="37.5 37.5 25 25" enable-background="new 37.5 37.5 25 25" xml:space="preserve">
<g>
	<path fill="#333333" d="M49.74,38.523c6.186,0,11.219,5.03,11.219,11.213c0,6.182-5.033,11.214-11.219,11.214
		c-6.187,0-11.22-5.032-11.22-11.214C38.52,43.553,43.553,38.523,49.74,38.523 M49.74,37.5c-6.762,0-12.242,5.479-12.242,12.236
		c0,6.758,5.48,12.237,12.242,12.237c6.761,0,12.242-5.479,12.242-12.237S56.501,37.5,49.74,37.5L49.74,37.5z"/>
	<g>
		<rect x="42.598" y="47.187" fill="#333333" width="3.061" height="9.688"/>
		<path fill="#333333" d="M44.128,46.167c0.844,0,1.53-0.685,1.53-1.53c0-0.844-0.685-1.529-1.53-1.529
			c-0.846,0-1.531,0.685-1.531,1.529C42.598,45.482,43.282,46.167,44.128,46.167z"/>
		<path fill="#333333" d="M56.88,51.689c0-2.545-0.551-4.503-3.53-4.503c-1.432,0-2.394,0.784-2.786,1.526h-0.041v-1.291h-2.824
			v9.452h2.943v-4.677c0-1.232,0.234-2.427,1.767-2.427c1.509,0,1.53,1.409,1.53,2.506v4.597h2.941V51.689z"/>
	</g>
</g>
</svg>
