<?xml version="1.0" encoding="utf-8"?>
<!-- Generator: Adobe Illustrator 16.0.4, SVG Export Plug-In . SVG Version: 6.00 Build 0)  -->
<!DOCTYPE svg PUBLIC "-//W3C//DTD SVG 1.1//EN" "http://www.w3.org/Graphics/SVG/1.1/DTD/svg11.dtd">
<svg version="1.1" id="Layer_1" xmlns="http://www.w3.org/2000/svg" xmlns:xlink="http://www.w3.org/1999/xlink" x="0px" y="0px"
	 width="50px" height="50px" viewBox="0 0 50 50" enable-background="new 0 0 50 50" xml:space="preserve">
<g>
	<path fill="#231F20" d="M6.707,16.31c0,0.743,0.602,1.345,1.345,1.345h33.896c0.743,0,1.345-0.602,1.345-1.345v-1.344
		c0-0.743-0.602-1.345-1.345-1.345H8.052c-0.743,0-1.345,0.602-1.345,1.345V16.31z"/>
</g>
<g>
	<path fill="#231F20" d="M6.707,26.829c0,0.742,0.602,1.345,1.345,1.345h33.896c0.743,0,1.345-0.603,1.345-1.345v-1.345
		c0-0.742-0.602-1.344-1.345-1.344H8.052c-0.743,0-1.345,0.602-1.345,1.344V26.829z"/>
</g>
<g>
	<path fill="#231F20" d="M6.707,37.347c0,0.743,0.602,1.345,1.345,1.345h33.896c0.743,0,1.345-0.602,1.345-1.345v-1.344
		c0-0.743-0.602-1.345-1.345-1.345H8.052c-0.743,0-1.345,0.602-1.345,1.345V37.347z"/>
</g>
</svg>
