<?xml version="1.0" encoding="utf-8"?>
<!-- Generator: Adobe Illustrator 16.0.4, SVG Export Plug-In . SVG Version: 6.00 Build 0)  -->
<!DOCTYPE svg PUBLIC "-//W3C//DTD SVG 1.1//EN" "http://www.w3.org/Graphics/SVG/1.1/DTD/svg11.dtd">
<svg version="1.1" id="Layer_1" xmlns="http://www.w3.org/2000/svg" xmlns:xlink="http://www.w3.org/1999/xlink" x="0px" y="0px"
	 width="25px" height="25px" viewBox="37.5 37.5 25 25" enable-background="new 37.5 37.5 25 25" xml:space="preserve">
<g>
	<path fill="#333333" d="M50.01,38.545c6.32,0,11.464,5.14,11.464,11.457c0,6.318-5.144,11.459-11.464,11.459
		c-6.321,0-11.464-5.14-11.464-11.459C38.546,43.685,43.689,38.545,50.01,38.545 M50.01,37.5c-6.909,0-12.51,5.597-12.51,12.502
		c0,6.905,5.601,12.504,12.51,12.504c6.908,0,12.51-5.599,12.51-12.504C62.52,43.096,56.918,37.5,50.01,37.5L50.01,37.5z"/>
	<path fill="#333333" d="M46.737,57.203c0.013,0.101,0.143,0.124,0.202,0.048c0.083-0.107,1.167-1.424,1.536-2.74
		c0.104-0.374,0.599-2.304,0.599-2.304c0.296,0.557,1.16,1.044,2.079,1.044c2.735,0,4.59-2.454,4.59-5.741
		c0-2.485-2.137-4.8-5.385-4.8c-4.042,0-6.081,2.854-6.081,5.233c0,1.44,0.555,2.724,1.742,3.201
		c0.195,0.079,0.37,0.002,0.426-0.209c0.04-0.147,0.133-0.518,0.174-0.674c0.056-0.209,0.035-0.283-0.123-0.466
		c-0.342-0.398-0.562-0.914-0.562-1.643c0-2.117,1.61-4.012,4.189-4.012c2.284,0,3.541,1.375,3.541,3.21
		c0,2.416-1.087,4.455-2.696,4.455c-0.892,0-1.558-0.726-1.345-1.614c0.257-1.062,0.753-2.207,0.753-2.973
		c0-0.686-0.374-1.258-1.148-1.258c-0.91,0-1.641,0.928-1.641,2.169c0,0.791,0.271,1.326,0.271,1.326s-0.932,3.886-1.094,4.565
		C46.438,55.376,46.714,57.036,46.737,57.203z"/>
</g>
</svg>
