<?xml version="1.0" encoding="utf-8"?>
<!-- Generator: Adobe Illustrator 16.0.4, SVG Export Plug-In . SVG Version: 6.00 Build 0)  -->
<!DOCTYPE svg PUBLIC "-//W3C//DTD SVG 1.1//EN" "http://www.w3.org/Graphics/SVG/1.1/DTD/svg11.dtd">
<svg version="1.1" id="Layer_1" xmlns="http://www.w3.org/2000/svg" xmlns:xlink="http://www.w3.org/1999/xlink" x="0px" y="0px"
	 width="25px" height="25px" viewBox="0 0 25 25" enable-background="new 0 0 25 25" xml:space="preserve">
<g>
	<path fill="#333333" d="M12.5-0.01c-6.91,0-12.51,5.6-12.51,12.51c0,6.9,5.6,12.5,12.51,12.5s12.51-5.6,12.51-12.5
		C25.01,5.59,19.41-0.01,12.5-0.01z M13.65,15.74c-0.92,0-1.791-0.48-2.081-1.04c0,0-0.5,1.93-0.6,2.3
		c-0.37,1.32-1.46,2.64-1.54,2.74c-0.06,0.08-0.19,0.06-0.2-0.04c-0.02-0.17-0.3-1.83,0.03-3.19c0.16-0.68,1.09-4.56,1.09-4.56
		s-0.27-0.54-0.27-1.33c0-1.24,0.73-2.17,1.64-2.17c0.78,0,1.15,0.58,1.15,1.26c0,0.77-0.5,1.91-0.75,2.98
		c-0.22,0.88,0.45,1.61,1.34,1.61c1.61,0,2.7-2.04,2.7-4.46c0-1.83-1.26-3.21-3.54-3.21c-2.58,0-4.19,1.9-4.19,4.02
		c0,0.72,0.22,1.24,0.56,1.64c0.16,0.18,0.18,0.26,0.12,0.46c-0.04,0.16-0.13,0.53-0.17,0.68c-0.06,0.21-0.23,0.29-0.43,0.21
		c-1.18-0.479-1.74-1.76-1.74-3.2c0-2.38,2.04-5.24,6.08-5.24c3.25,0,5.39,2.32,5.39,4.8C18.24,13.29,16.38,15.74,13.65,15.74z"/>
</g>
</svg>
